HIERARCHY
ROOT Hips
{
	OFFSET 0.000000 0.000000 0.000000
	CHANNELS 6 Xposition Yposition Zposition Xrotation Yrotation Zrotation
	JOINT LeftUpLeg_virtual
	{
		OFFSET 0.000000 0.000000 0.000000
		CHANNELS 3 Xrotation Yrotation Zrotation
		JOINT LeftUpLeg
		{
			OFFSET 10.205400 -3.823500 0.155100
			CHANNELS 3 Xrotation Yrotation Zrotation
			JOINT LeftLeg
			{
				OFFSET 0.708757 -12.982077 0.567790
				CHANNELS 3 Xrotation Yrotation Zrotation
				JOINT LeftFoot
				{
					OFFSET -0.708756 -10.717838 -2.184338
					CHANNELS 3 Xrotation Yrotation Zrotation
					JOINT LeftToeBase
					{
						OFFSET 0.108149 -7.191104 7.560241
						CHANNELS 3 Xrotation Yrotation Zrotation
						JOINT LeftToe_End
						{
							OFFSET 0.070230 0.081724 4.490308
							CHANNELS 3 Xrotation Yrotation Zrotation
							End Site
							{
								OFFSET 0 0 0
							}
						}
					}
				}
			}
		}
	}
	JOINT RightUpLeg_virtual
	{
		OFFSET 0.000000 0.000000 0.000000
		CHANNELS 3 Xrotation Yrotation Zrotation
		JOINT RightUpLeg
		{
			OFFSET -10.205400 -3.823500 0.005500
			CHANNELS 3 Xrotation Yrotation Zrotation
			JOINT RightLeg
			{
				OFFSET -0.708756 -12.982134 0.610632
				CHANNELS 3 Xrotation Yrotation Zrotation
				JOINT RightFoot
				{
					OFFSET 0.708754 -10.717769 -1.945823
					CHANNELS 3 Xrotation Yrotation Zrotation
					JOINT RightToeBase
					{
						OFFSET -0.108140 -7.191069 7.372968
						CHANNELS 3 Xrotation Yrotation Zrotation
						JOINT RightToe_End
						{
							OFFSET -0.070227 0.081735 4.479403
							CHANNELS 3 Xrotation Yrotation Zrotation
							End Site
							{
								OFFSET 0 0 0
							}
						}
					}
				}
			}
		}
	}
	JOINT Spine_virtual
	{
		OFFSET 0.000000 0.000000 0.000000
		CHANNELS 3 Xrotation Yrotation Zrotation
		JOINT Spine
		{
			OFFSET 0.000000 6.876099 0.125700
			CHANNELS 3 Xrotation Yrotation Zrotation
			JOINT Spine1
			{
				OFFSET 0.000000 5.730043 0.104720
				CHANNELS 3 Xrotation Yrotation Zrotation
				JOINT Spine1_split
				{
					OFFSET 0.000000 5.730043 0.104720
					CHANNELS 3 Xrotation Yrotation Zrotation
					JOINT Spine2
					{
						OFFSET 0.000000 5.730043 0.104720
						CHANNELS 3 Xrotation Yrotation Zrotation
						JOINT Neck_virtual
						{
							OFFSET 0.000000 0.000000 0.000000
							CHANNELS 3 Xrotation Yrotation Zrotation
							JOINT Neck
							{
								OFFSET 0.000000 10.314075 0.188496
								CHANNELS 3 Xrotation Yrotation Zrotation
								JOINT Head
								{
									OFFSET 0.000000 7.643700 -2.377400
									CHANNELS 3 Xrotation Yrotation Zrotation
									JOINT HeadTop_End
									{
										OFFSET 0.000000 43.788605 -13.619600
										CHANNELS 3 Xrotation Yrotation Zrotation
										End Site
										{
											OFFSET 0 0 0
										}
									}
								}
							}
						}
						JOINT LeftShoulder_virtual
						{
							OFFSET 0.000000 0.000000 0.000000
							CHANNELS 3 Xrotation Yrotation Zrotation
							JOINT LeftShoulder
							{
								OFFSET 2.196100 4.412489 0.087492
								CHANNELS 3 Xrotation Yrotation Zrotation
								JOINT LeftShoulder_split
								{
									OFFSET 2.196100 4.412489 0.087492
									CHANNELS 3 Xrotation Yrotation Zrotation
									JOINT LeftArm
									{
										OFFSET 8.771219 -2.981674 -0.026999
										CHANNELS 3 Xrotation Yrotation Zrotation
										JOINT LeftForeArm
										{
											OFFSET 8.512804 0.000000 -0.000000
											CHANNELS 3 Xrotation Yrotation Zrotation
											JOINT LeftHand
											{
												OFFSET 18.484802 0.000000 -0.000000
												CHANNELS 3 Xrotation Yrotation Zrotation
												End Site
												{
													OFFSET 0 0 0
												}
											}
										}
									}
								}
							}
						}
						JOINT RightShoulder_virtual
						{
							OFFSET 0.000000 0.000000 0.000000
							CHANNELS 3 Xrotation Yrotation Zrotation
							JOINT RightShoulder
							{
								OFFSET -2.196100 4.412496 0.070690
								CHANNELS 3 Xrotation Yrotation Zrotation
								JOINT RightShoulder_split
								{
									OFFSET -2.196100 4.412496 0.070690
									CHANNELS 3 Xrotation Yrotation Zrotation
									JOINT RightArm
									{
										OFFSET -8.771282 -2.981682 -0.094208
										CHANNELS 3 Xrotation Yrotation Zrotation
										JOINT RightForeArm
										{
											OFFSET -8.494598 0.000000 0.000000
											CHANNELS 3 Xrotation Yrotation Zrotation
											JOINT RightHand
											{
												OFFSET -18.483803 0.000000 0.000001
												CHANNELS 3 Xrotation Yrotation Zrotation
												End Site
												{
													OFFSET 0 0 0
												}
											}
										}
									}
								}
							}
						}
					}
				}
			}
		}
	}
}
MOTION
Frames: 9
Frame Time: 0.03333333
0.922394 45.989388 7.655217 0.000000 0.000000 0.000000 -92.858054 1.429938 1.618956 -9.779326 15.543397 21.098681 17.699450 3.512705 0.299792 18.280986 31.090994 -31.141547 2.009828 -0.000027 0.000007 0.000000 0.000000 0.000000 -92.858054 1.429938 1.618956 -12.552376 -13.918145 -17.676989 26.996876 -4.822166 -8.188857 25.889629 -32.139295 35.363991 -5.697004 0.000038 0.000023 0.000000 0.000000 0.000000 -92.858054 1.429938 1.618956 3.935221 1.358139 -0.504541 17.892644 2.300590 -1.698433 0.000000 0.000000 0.000000 0.000000 0.000000 0.000000 15.709585 2.912671 -1.979399 0.675394 0.828532 -3.845563 19.254913 3.369945 -9.778009 0.000000 0.000000 0.000000 15.709585 2.912671 -1.979399 0.698962 6.300044 -0.044538 0.000000 0.000000 0.000000 17.552377 -48.789366 -38.377648 -0.000044 -78.695213 -0.000023 0.000000 0.000000 0.000000 15.709585 2.912671 -1.979399 0.904664 3.117775 16.151318 0.000000 0.000000 0.000000 -30.692985 38.671571 59.604438 179.999978 55.804268 -179.999991 0.000000 0.000000 0.000000 
0.905588 45.985889 7.648556 0.000000 0.000000 0.000000 -92.963205 0.995783 1.455517 -9.562446 15.594476 21.130399 17.771090 3.557221 0.496278 18.370516 31.145376 -31.303157 2.018183 -0.000003 -0.000009 0.000000 0.000000 0.000000 -92.963205 0.995783 1.455517 -12.783050 -13.932980 -17.452650 26.805873 -4.862296 -7.970251 26.480812 -31.776758 34.747771 -6.236854 0.000043 0.000022 0.000000 0.000000 0.000000 -92.963205 0.995783 1.455517 3.826715 1.353129 -0.452782 17.173657 2.320173 -1.615369 0.000000 0.000000 0.000000 0.000000 0.000000 0.000000 15.078720 2.910057 -1.904892 1.032854 0.830505 -3.592069 20.824676 3.567344 -10.053781 0.000000 0.000000 0.000000 15.078720 2.910057 -1.904892 0.987222 5.865646 -0.070362 0.000000 0.000000 0.000000 17.540368 -48.233638 -39.213448 0.000006 -78.453001 0.000045 0.000000 0.000000 0.000000 15.078720 2.910057 -1.904892 1.003570 3.077427 16.318504 0.000000 0.000000 0.000000 -30.625332 39.526120 60.112563 179.999991 57.388738 179.999991 0.000000 0.000000 0.000000 
0.878386 45.997017 7.688994 0.000000 0.000000 0.000000 -92.660156 0.759769 1.285720 -9.999347 15.433506 21.209839 18.052858 3.609778 0.548444 19.342758 31.254481 -31.486021 0.988549 -0.000015 0.000040 0.000000 0.000000 0.000000 -92.660156 0.759769 1.285720 -13.277381 -13.913396 -17.167441 26.280784 -5.104815 -7.622466 27.519249 -31.320280 34.116484 -7.028506 0.000058 -0.000012 0.000000 0.000000 0.000000 -92.660156 0.759769 1.285720 3.664148 1.280210 -0.394957 16.309069 2.217898 -1.457731 0.000000 0.000000 0.000000 0.000000 0.000000 0.000000 14.304893 2.791179 -1.752529 1.371164 0.810480 -3.366240 22.599861 3.500710 -10.232347 0.000000 0.000000 0.000000 14.304893 2.791179 -1.752529 1.036061 5.431824 -0.068799 0.000000 0.000000 0.000000 17.978677 -47.538977 -40.193758 -0.000022 -78.189472 -0.000000 0.000000 0.000000 0.000000 14.304893 2.791179 -1.752529 1.002754 3.007379 16.447019 0.000000 0.000000 0.000000 -30.000715 40.337670 60.294267 179.999991 58.563251 179.999991 0.000000 0.000000 0.000000 
0.840296 46.020493 7.723026 0.000000 0.000000 0.000000 -91.607351 0.856285 1.049256 -11.141980 15.069202 21.295891 18.641400 3.936536 0.236933 20.790100 31.366192 -31.501956 -0.570073 0.000012 -0.000006 0.000000 0.000000 0.000000 -91.607351 0.856285 1.049256 -14.371944 -13.785487 -16.522740 25.753648 -4.869686 -7.764579 29.715373 -31.575818 34.355752 -8.215209 0.000050 0.000026 0.000000 0.000000 0.000000 -91.607351 0.856285 1.049256 3.455738 1.059945 -0.333895 15.322315 1.836153 -1.235604 0.000000 0.000000 0.000000 0.000000 0.000000 0.000000 13.427521 2.371646 -1.472053 1.467851 0.767052 -3.162884 23.529959 3.337672 -10.285324 0.000000 0.000000 0.000000 13.427521 2.371646 -1.472053 0.975464 4.991306 -0.080155 0.000000 0.000000 0.000000 18.149370 -45.959257 -42.436546 0.000008 -78.113814 0.000036 0.000000 0.000000 0.000000 13.427521 2.371646 -1.472053 0.920520 2.913159 16.512413 0.000000 0.000000 0.000000 -28.275979 40.716103 59.228955 179.999978 58.201251 179.999978 0.000000 0.000000 0.000000 
0.784636 46.040405 7.763988 0.000000 0.000000 0.000000 -90.101595 1.161840 0.780632 -12.921833 14.514439 21.413680 19.511600 4.397708 -0.325005 22.406958 31.456508 -31.388688 -2.481286 0.000013 0.000022 0.000000 0.000000 0.000000 -90.101595 1.161840 0.780632 -15.415867 -13.653682 -15.963976 25.302414 -4.862867 -7.924152 31.346409 -31.795781 34.941038 -9.118497 0.000065 0.000015 0.000000 0.000000 0.000000 -90.101595 1.161840 0.780632 3.241173 0.811216 -0.277299 14.311506 1.396545 -1.013137 0.000000 0.000000 0.000000 0.000000 0.000000 0.000000 12.511444 1.904985 -1.191483 1.469675 0.741555 -3.018223 23.462682 3.217815 -10.302686 0.000000 0.000000 0.000000 12.511444 1.904985 -1.191483 0.898269 4.540056 -0.170374 0.000000 0.000000 0.000000 18.277011 -44.009180 -44.987345 -0.000083 -78.127925 -0.000066 0.000000 0.000000 0.000000 12.511444 1.904985 -1.191483 0.805408 2.813793 16.502198 0.000000 0.000000 0.000000 -25.783165 40.754909 57.315819 179.999978 56.726972 -180.000005 0.000000 0.000000 0.000000 
0.740026 46.060520 7.793212 0.000000 0.000000 0.000000 -88.966130 1.414346 0.595889 -14.261741 13.970880 21.419241 19.757873 4.827015 -0.740770 24.074730 31.511419 -31.401443 -4.337517 0.000001 -0.000005 0.000000 0.000000 0.000000 -88.966130 1.414346 0.595889 -16.010337 -13.568710 -15.792079 25.069376 -4.893955 -7.741680 32.198605 -31.937200 35.326411 -9.734794 0.000073 -0.000013 0.000000 0.000000 0.000000 -88.966130 1.414346 0.595889 3.021980 0.518561 -0.215270 13.279711 0.865040 -0.783413 0.000000 0.000000 0.000000 0.000000 0.000000 0.000000 11.566058 1.418215 -0.921089 1.240497 0.709911 -2.806798 22.276968 3.288684 -10.216059 0.000000 0.000000 0.000000 11.566058 1.418215 -0.921089 0.811667 4.082206 -0.348796 0.000000 0.000000 0.000000 18.567835 -41.785031 -47.550233 0.000005 -78.235698 0.000015 0.000000 0.000000 0.000000 11.566058 1.418215 -0.921089 0.659137 2.714212 16.452182 0.000000 0.000000 0.000000 -23.544208 40.816555 55.663791 179.999964 55.861611 -179.999991 0.000000 0.000000 0.000000 
0.714310 46.084465 7.817317 0.000000 0.000000 0.000000 -88.755180 1.493831 0.612315 -14.412343 14.192086 21.268839 19.132139 5.090075 -0.915182 25.230932 31.546069 -31.449668 -5.196642 0.000010 0.000013 0.000000 0.000000 0.000000 -88.755180 1.493831 0.612315 -16.054049 -13.549362 -15.742128 25.273758 -4.634252 -7.875177 32.387767 -32.120180 35.678384 -9.950706 0.000060 0.000002 0.000000 0.000000 0.000000 -88.755180 1.493831 0.612315 2.821502 0.270415 -0.135645 12.272498 0.419987 -0.595573 0.000000 0.000000 0.000000 0.000000 0.000000 0.000000 10.646915 0.995675 -0.699682 0.733040 0.775710 -2.705788 20.988003 3.506050 -10.203789 0.000000 0.000000 0.000000 10.646915 0.995675 -0.699682 0.727319 3.621930 -0.566948 0.000000 0.000000 0.000000 19.437854 -40.042080 -49.082480 -0.000028 -78.359332 -0.000037 0.000000 0.000000 0.000000 10.646915 0.995675 -0.699682 0.490784 2.620181 16.373586 0.000000 0.000000 0.000000 -21.492862 40.844415 54.263025 179.999991 56.373397 179.999978 0.000000 0.000000 0.000000 
0.701129 46.086563 7.840232 0.000000 0.000000 0.000000 -88.872188 1.494100 0.653850 -14.049155 14.357555 21.245831 18.650953 5.207919 -1.274229 25.364099 31.535824 -31.403188 -5.496449 0.000021 0.000011 0.000000 0.000000 0.000000 -88.872188 1.494100 0.653850 -15.918958 -13.538206 -16.067050 25.455702 -4.474746 -7.401295 32.368628 -32.131645 35.677186 -10.198259 0.000082 0.000003 0.000000 0.000000 0.000000 -88.872188 1.494100 0.653850 2.645367 0.116051 -0.050210 11.299354 0.108238 -0.457971 0.000000 0.000000 0.000000 0.000000 0.000000 0.000000 9.774377 0.718793 -0.560868 0.319289 0.838119 -2.640527 19.777303 3.676053 -10.176088 0.000000 0.000000 0.000000 9.774377 0.718793 -0.560868 0.654992 3.163026 -0.815093 0.000000 0.000000 0.000000 20.568476 -38.777347 -49.850235 -0.000031 -78.467904 -0.000038 0.000000 0.000000 0.000000 9.774377 0.718793 -0.560868 0.306127 2.535594 16.269398 0.000000 0.000000 0.000000 -19.137567 40.572287 52.635128 180.000005 57.143190 179.999978 0.000000 0.000000 0.000000 
0.685201 46.087311 7.834488 0.000000 0.000000 0.000000 -89.113335 1.341224 0.617673 -13.646263 14.490853 21.269419 18.370297 5.232473 -1.380425 25.163650 31.527600 -31.427080 -5.524277 -0.000015 0.000017 0.000000 0.000000 0.000000 -89.113335 1.341224 0.617673 -15.696082 -13.592126 -16.291126 25.438888 -4.526453 -6.853649 32.321415 -32.140459 35.480357 -10.335576 0.000067 0.000008 0.000000 0.000000 0.000000 -89.113335 1.341224 0.617673 2.473850 0.010439 0.029206 10.329515 -0.103048 -0.358027 0.000000 0.000000 0.000000 0.000000 0.000000 0.000000 8.908595 0.501513 -0.460860 -0.041639 0.894111 -2.606007 19.168574 3.779869 -10.120725 0.000000 0.000000 0.000000 8.908595 0.501513 -0.460860 0.603309 2.709181 -1.083873 0.000000 0.000000 0.000000 21.701396 -37.652210 -50.428683 -0.000069 -78.576573 -0.000053 0.000000 0.000000 0.000000 8.908595 0.501513 -0.460860 0.067331 2.578878 16.138209 0.000000 0.000000 0.000000 -16.429207 39.962419 51.030614 -179.999991 58.029260 179.999978 0.000000 0.000000 0.000000 
